<svg xmlns="http://www.w3.org/2000/svg" viewBox="0 0 900 450" font-family="Inter,Arial,sans-serif">
  <rect width="900" height="450" rx="18" fill="#fbfaf8"/><text x="48" y="55" font-size="19" font-weight="800" fill="#d73f09">Smart-fluidnet</text><text x="48" y="83" font-size="15" fill="#766d65">Adaptive neural approximation for fluid simulation</text>
  <g transform="translate(48 135)"><rect width="205" height="180" rx="12" fill="#fff" stroke="#ddd6cc" stroke-width="2"/><text x="102" y="32" text-anchor="middle" font-size="16" font-weight="700" fill="#1f1f1f">Simulation state</text><g fill="none" stroke="#d73f09" stroke-width="3"><path d="M36 79c31-38 52 38 83 0s45 30 57-3"/><path d="M36 117c31-38 52 38 83 0s45 30 57-3"/><path d="M36 151c31-38 52 38 83 0s45 30 57-3"/></g></g>
  <path d="M253 225h65" stroke="#d73f09" stroke-width="3"/><path d="m308 216 10 9-10 9" fill="none" stroke="#d73f09" stroke-width="3"/>
  <g transform="translate(318 135)"><rect width="250" height="180" rx="12" fill="#fff6f0" stroke="#d73f09" stroke-width="2"/><text x="125" y="32" text-anchor="middle" font-size="16" font-weight="700" fill="#1f1f1f">Runtime selector</text><g font-size="14" font-weight="700"><rect x="30" y="58" width="190" height="30" rx="15" fill="#fff" stroke="#ddd6cc"/><text x="125" y="78" text-anchor="middle" fill="#4d4742">NN model A · coarse</text><rect x="30" y="98" width="190" height="30" rx="15" fill="#fff" stroke="#d73f09" stroke-width="2"/><text x="125" y="118" text-anchor="middle" fill="#d73f09">NN model B · selected</text><rect x="30" y="138" width="190" height="30" rx="15" fill="#fff" stroke="#ddd6cc"/><text x="125" y="158" text-anchor="middle" fill="#4d4742">Solver · exact</text></g></g>
  <path d="M568 225h65" stroke="#d73f09" stroke-width="3"/><path d="m623 216 10 9-10 9" fill="none" stroke="#d73f09" stroke-width="3"/>
  <g transform="translate(633 135)"><rect width="219" height="180" rx="12" fill="#fff" stroke="#ddd6cc" stroke-width="2"/><text x="109" y="32" text-anchor="middle" font-size="16" font-weight="700" fill="#1f1f1f">Next state</text><g fill="none" stroke="#d73f09" stroke-width="5" opacity=".75"><path d="M32 115c28-55 55 51 82-3s48 32 73-25"/></g><circle cx="187" cy="87" r="7" fill="#d73f09"/></g>
  <text x="450" y="385" text-anchor="middle" font-size="16" fill="#4d4742">Switch models as dynamics change · accelerate without losing accuracy</text>
</svg>
