<svg xmlns="http://www.w3.org/2000/svg" viewBox="0 0 900 450" font-family="Inter,Arial,sans-serif">
  <rect width="900" height="450" rx="18" fill="#fbfaf8"/><text x="48" y="55" font-size="19" font-weight="800" fill="#d73f09">Reliable scientific ML surrogates</text><text x="48" y="83" font-size="15" fill="#766d65">Detect distribution shift before trusting a fast prediction</text>
  <g transform="translate(50 130)"><rect width="180" height="190" rx="12" fill="#fff" stroke="#ddd6cc" stroke-width="2"/><text x="90" y="34" text-anchor="middle" font-size="16" font-weight="700" fill="#1f1f1f">Simulation data</text><g fill="#d73f09" opacity=".75"><circle cx="50" cy="88" r="7"/><circle cx="72" cy="110" r="7"/><circle cx="96" cy="82" r="7"/><circle cx="120" cy="113" r="7"/><circle cx="139" cy="73" r="7"/><circle cx="100" cy="143" r="7"/></g></g>
  <path d="M230 225h70" stroke="#d73f09" stroke-width="3"/><path d="m290 216 10 9-10 9" fill="none" stroke="#d73f09" stroke-width="3"/>
  <g transform="translate(300 130)"><rect width="210" height="190" rx="12" fill="#fff6f0" stroke="#d73f09" stroke-width="2"/><text x="105" y="34" text-anchor="middle" font-size="16" font-weight="700" fill="#1f1f1f">Surrogate model</text><g fill="none" stroke="#d73f09" stroke-width="2"><circle cx="52" cy="88" r="12"/><circle cx="52" cy="135" r="12"/><circle cx="105" cy="72" r="12"/><circle cx="105" cy="112" r="12"/><circle cx="105" cy="152" r="12"/><circle cx="158" cy="112" r="12"/><path d="M64 88l29-16m-29 16 29 24m-29 23 29-23m-29 23 29 17m24-80 29 40m-29 0h29m-29 40 29-40"/></g></g>
  <path d="M510 225h70" stroke="#d73f09" stroke-width="3"/><path d="m570 216 10 9-10 9" fill="none" stroke="#d73f09" stroke-width="3"/>
  <g transform="translate(580 130)"><rect width="270" height="190" rx="12" fill="#fff" stroke="#ddd6cc" stroke-width="2"/><text x="135" y="34" text-anchor="middle" font-size="16" font-weight="700" fill="#1f1f1f">Reliability gate</text><rect x="28" y="62" width="95" height="86" rx="9" fill="#eef7ef" stroke="#6b9f70"/><text x="75" y="94" text-anchor="middle" font-size="15" font-weight="700" fill="#47794c">In range</text><text x="75" y="123" text-anchor="middle" font-size="25" fill="#47794c">✓</text><rect x="147" y="62" width="95" height="86" rx="9" fill="#fff0eb" stroke="#d73f09"/><text x="194" y="94" text-anchor="middle" font-size="15" font-weight="700" fill="#b33100">Shifted</text><text x="194" y="123" text-anchor="middle" font-size="25" fill="#b33100">!</text></g>
  <text x="450" y="390" text-anchor="middle" font-size="16" fill="#4d4742">Fast when confident · cautious under distribution shift</text>
</svg>
