<svg xmlns="http://www.w3.org/2000/svg" viewBox="0 0 900 450" font-family="Inter,Arial,sans-serif">
  <rect width="900" height="450" rx="18" fill="#fbfaf8"/><text x="48" y="55" font-size="19" font-weight="800" fill="#d73f09">Application resilience at scale</text><text x="48" y="83" font-size="15" fill="#766d65">Predict large parallel runs from affordable fault-injection experiments</text>
  <g transform="translate(48 135)"><rect width="220" height="180" rx="12" fill="#fff" stroke="#ddd6cc" stroke-width="2"/><text x="110" y="32" text-anchor="middle" font-size="16" font-weight="700" fill="#1f1f1f">Small-scale runs</text><g fill="#766d65"><circle cx="55" cy="85" r="14"/><circle cx="110" cy="85" r="14"/><circle cx="165" cy="85" r="14"/><circle cx="82" cy="135" r="14"/><circle cx="138" cy="135" r="14"/></g><path d="m102 77 16 16m0-16-16 16" stroke="#fff" stroke-width="4"/></g>
  <path d="M268 225h75" stroke="#d73f09" stroke-width="3"/><path d="m333 216 10 9-10 9" fill="none" stroke="#d73f09" stroke-width="3"/>
  <g transform="translate(343 135)"><rect width="215" height="180" rx="12" fill="#fff6f0" stroke="#d73f09" stroke-width="2"/><text x="107" y="32" text-anchor="middle" font-size="16" font-weight="700" fill="#1f1f1f">Resilience model</text><path d="M36 143c33-6 45-39 74-47s38-43 69-57" fill="none" stroke="#d73f09" stroke-width="4"/><g fill="#d73f09"><circle cx="36" cy="143" r="7"/><circle cx="82" cy="112" r="7"/><circle cx="110" cy="96" r="7"/><circle cx="148" cy="63" r="7"/><circle cx="179" cy="39" r="7"/></g></g>
  <path d="M558 225h75" stroke="#d73f09" stroke-width="3"/><path d="m623 216 10 9-10 9" fill="none" stroke="#d73f09" stroke-width="3"/>
  <g transform="translate(633 135)"><rect width="219" height="180" rx="12" fill="#fff" stroke="#ddd6cc" stroke-width="2"/><text x="109" y="32" text-anchor="middle" font-size="16" font-weight="700" fill="#1f1f1f">Large-scale prediction</text><g fill="#766d65" opacity=".9"><circle cx="42" cy="76" r="8"/><circle cx="72" cy="76" r="8"/><circle cx="102" cy="76" r="8"/><circle cx="132" cy="76" r="8"/><circle cx="162" cy="76" r="8"/><circle cx="192" cy="76" r="8"/><circle cx="42" cy="106" r="8"/><circle cx="72" cy="106" r="8"/><circle cx="102" cy="106" r="8"/><circle cx="132" cy="106" r="8"/><circle cx="162" cy="106" r="8"/><circle cx="192" cy="106" r="8"/></g><text x="109" y="151" text-anchor="middle" font-size="14" fill="#4d4742">many MPI processes</text></g>
  <text x="450" y="385" text-anchor="middle" font-size="16" fill="#4d4742">Lower experiment cost · accurate resilience estimates</text>
</svg>
