<svg xmlns="http://www.w3.org/2000/svg" viewBox="0 0 900 450" font-family="Inter,Arial,sans-serif">
  <rect width="900" height="450" rx="18" fill="#fbfaf8"/>
  <text x="48" y="54" font-size="19" font-weight="800" fill="#d73f09">SZ-GEN</text><text x="48" y="82" font-size="15" fill="#766d65">Multi-agent optimization across HPC architectures</text>
  <g stroke="#ddd6cc" stroke-width="2" fill="#fff"><rect x="48" y="132" width="175" height="190" rx="12"/><rect x="270" y="132" width="175" height="190" rx="12"/><rect x="492" y="132" width="175" height="190" rx="12"/><rect x="714" y="132" width="138" height="190" rx="12"/></g>
  <g fill="#1f1f1f" text-anchor="middle"><text x="135" y="170" font-size="17" font-weight="700">Translate</text><text x="357" y="170" font-size="17" font-weight="700">Profile</text><text x="579" y="170" font-size="17" font-weight="700">Optimize</text><text x="783" y="170" font-size="17" font-weight="700">Verify</text></g>
  <g fill="#fff6f0" stroke="#d73f09" stroke-width="2"><path d="M91 211h88v64H91z"/><path d="m110 231 12 12-12 12m26 0h25"/><circle cx="357" cy="243" r="42"/><path d="M357 211v32l25 17"/><path d="M535 215h88v55h-88zM548 286h62"/><path d="m760 241 17 17 34-40" fill="none" stroke-width="7"/></g>
  <g stroke="#d73f09" stroke-width="3" fill="none"><path d="M223 227h47"/><path d="m260 218 10 9-10 9"/><path d="M445 227h47"/><path d="m482 218 10 9-10 9"/><path d="M667 227h47"/><path d="m704 218 10 9-10 9"/></g>
  <g font-size="14" text-anchor="middle" fill="#4d4742"><text x="135" y="302">LLM agents</text><text x="357" y="302">measure kernels</text><text x="579" y="302">iterative feedback</text><text x="783" y="302">correctness</text></g>
  <g transform="translate(232 370)" font-size="15" font-weight="700"><rect x="0" width="124" height="36" rx="18" fill="#fff" stroke="#ddd6cc"/><text x="62" y="23" text-anchor="middle" fill="#4d4742">CUDA</text><rect x="148" width="124" height="36" rx="18" fill="#fff" stroke="#ddd6cc"/><text x="210" y="23" text-anchor="middle" fill="#4d4742">HIP</text><rect x="296" width="140" height="36" rx="18" fill="#fff" stroke="#ddd6cc"/><text x="366" y="23" text-anchor="middle" fill="#4d4742">Cerebras</text></g>
</svg>
