<svg xmlns="http://www.w3.org/2000/svg" viewBox="0 0 900 450" font-family="Inter,Arial,sans-serif">
  <rect width="900" height="450" rx="18" fill="#fbfaf8"/><text x="48" y="55" font-size="19" font-weight="800" fill="#d73f09">Smart-PGSim</text><text x="48" y="83" font-size="15" fill="#766d65">Neural warm starts accelerate AC optimal power flow</text>
  <g transform="translate(48 138)"><rect width="185" height="170" rx="12" fill="#fff" stroke="#ddd6cc" stroke-width="2"/><text x="92" y="32" text-anchor="middle" font-size="16" font-weight="700" fill="#1f1f1f">Grid demand</text><g stroke="#766d65" stroke-width="3"><path d="M48 82 92 60l48 28-19 46H68Z"/><path d="m92 60-24 74m72-46-72 46"/></g><g fill="#d73f09"><circle cx="48" cy="82" r="8"/><circle cx="92" cy="60" r="8"/><circle cx="140" cy="88" r="8"/><circle cx="121" cy="134" r="8"/><circle cx="68" cy="134" r="8"/></g></g>
  <path d="M233 223h70" stroke="#d73f09" stroke-width="3"/><path d="m293 214 10 9-10 9" fill="none" stroke="#d73f09" stroke-width="3"/>
  <g transform="translate(303 138)"><rect width="215" height="170" rx="12" fill="#fff6f0" stroke="#d73f09" stroke-width="2"/><text x="107" y="32" text-anchor="middle" font-size="16" font-weight="700" fill="#1f1f1f">Multi-task network</text><g fill="#fff" stroke="#d73f09" stroke-width="2"><circle cx="48" cy="80" r="11"/><circle cx="48" cy="125" r="11"/><circle cx="105" cy="65" r="11"/><circle cx="105" cy="103" r="11"/><circle cx="105" cy="141" r="11"/><circle cx="166" cy="80" r="11"/><circle cx="166" cy="125" r="11"/></g><path d="M59 80 94 65m-35 15 35 23m-35 22 35-22m-35 22 35 16m22-76 39 15m-39 23 39-23m-39 23 39 22m-39 16 39-16" stroke="#d73f09" fill="none"/></g>
  <path d="M518 223h70" stroke="#d73f09" stroke-width="3"/><path d="m578 214 10 9-10 9" fill="none" stroke="#d73f09" stroke-width="3"/>
  <g transform="translate(588 138)"><rect width="264" height="170" rx="12" fill="#fff" stroke="#ddd6cc" stroke-width="2"/><text x="132" y="32" text-anchor="middle" font-size="16" font-weight="700" fill="#1f1f1f">AC-OPF solver</text><path d="M39 124c38-66 75-15 111-55s55-6 78-25" fill="none" stroke="#766d65" stroke-width="3"/><circle cx="39" cy="124" r="8" fill="#766d65"/><circle cx="150" cy="69" r="9" fill="#d73f09"/><text x="132" y="150" text-anchor="middle" font-size="14" fill="#4d4742">high-quality warm start</text></g>
  <text x="450" y="384" text-anchor="middle" font-size="16" fill="#4d4742">Predict operating variables → converge faster → preserve optimality</text>
</svg>
