<svg xmlns="http://www.w3.org/2000/svg" viewBox="0 0 900 450" font-family="Inter,Arial,sans-serif">
  <rect width="900" height="450" rx="18" fill="#fbfaf8"/><text x="48" y="55" font-size="19" font-weight="800" fill="#d73f09">TAHOE</text><text x="48" y="83" font-size="15" fill="#766d65">Rearrange forest structure for efficient GPU inference</text>
  <g transform="translate(48 130)" stroke="#766d65" stroke-width="2"><text x="150" y="-16" text-anchor="middle" stroke="none" fill="#1f1f1f" font-size="16" font-weight="700">Irregular forest</text><g fill="#fff"><circle cx="70" cy="25" r="17"/><circle cx="38" cy="80" r="17"/><circle cx="103" cy="80" r="17"/><circle cx="205" cy="25" r="17"/><circle cx="170" cy="80" r="17"/><circle cx="240" cy="80" r="17"/><circle cx="270" cy="135" r="17"/></g><path d="M62 41 45 63m34-22 17 22m101-22-20 22m36-22 20 22m7 15 23 40"/></g>
  <path d="M355 218h100" stroke="#d73f09" stroke-width="3"/><path d="m445 209 10 9-10 9" fill="none" stroke="#d73f09" stroke-width="3"/><text x="405" y="196" text-anchor="middle" fill="#d73f09" font-size="14" font-weight="700">reorder</text>
  <g transform="translate(485 130)"><text x="180" y="-16" text-anchor="middle" fill="#1f1f1f" font-size="16" font-weight="700">Coalesced GPU layout</text><g fill="#fff6f0" stroke="#d73f09" stroke-width="2"><rect x="0" y="25" width="360" height="48" rx="8"/><rect x="0" y="92" width="360" height="48" rx="8"/><rect x="0" y="159" width="360" height="48" rx="8"/></g><g fill="#d73f09"><rect x="18" y="40" width="50" height="18" rx="3"/><rect x="80" y="40" width="50" height="18" rx="3"/><rect x="142" y="40" width="50" height="18" rx="3"/><rect x="204" y="40" width="50" height="18" rx="3"/><rect x="266" y="40" width="76" height="18" rx="3"/><rect x="18" y="107" width="92" height="18" rx="3"/><rect x="122" y="107" width="92" height="18" rx="3"/><rect x="226" y="107" width="116" height="18" rx="3"/><rect x="18" y="174" width="116" height="18" rx="3"/><rect x="146" y="174" width="92" height="18" rx="3"/><rect x="250" y="174" width="92" height="18" rx="3"/></g></g>
  <g font-size="15" fill="#4d4742" text-anchor="middle"><text x="198" y="385">divergent memory access</text><text x="665" y="385">balanced threads · contiguous access</text></g>
</svg>
